<svg id="Battery" xmlns="http://www.w3.org/2000/svg" viewBox="0 0 746.52 621.31"><defs><style>.cls-1{fill:#fff;}</style></defs><title>Battery</title><path class="cls-1" d="M181.29,28.51l0,.09c2.71-4.69,1.53-4.33.58-1.84.24-.18.28,0,0,.71C181.67,27.78,181.48,28.14,181.29,28.51Z" transform="translate(-173.58 -24.96)"/><path class="cls-1" d="M176.59,33.12c-.28.08-.56.14-.84.21C172.33,34.23,173.21,35.25,176.59,33.12Z" transform="translate(-173.58 -24.96)"/><path d="M574,294.46c-1.14,2-1.76,3.32-2.56,4.5Q520.67,374.4,469.76,449.74c-5.59,8.24-9.32,16.38-4.1,25.93,5,9.23,13.7,11,23.43,11.1,21.79.33,43.57,1.24,65.35,1.78,3.93.09,4.85,1.48,3.94,5.23Q548.06,536.52,538,579.33c-.84,3.58-2.71,4.74-6.31,4.74-59.92-.09-119.85.13-179.77-.21-15.39-.09-28.17-6.75-36-20.52a29.12,29.12,0,0,1-3.79-13.72q-.35-110.46-.06-220.94c.05-15.62,9.84-25.19,23.35-30.58A59.51,59.51,0,0,1,356.77,294c70.41-.29,140.83-.18,211.24-.15C569.74,293.89,571.47,294.21,574,294.46Z" transform="translate(-173.58 -24.96)"/><path d="M644.1,236.48c-1.7,7.39-3.17,13.88-4.69,20.36q-16.7,71-33.4,142c-1.7,7.23-.85,8.77,6.61,9.07,19.44.78,38.9,1.18,58.35,1.77,8.64.26,17.28.59,25.93.92,6.67.25,9.17,4.79,5.46,10.48-5.73,8.78-11.74,17.39-17.68,26q-44.92,65.52-89.87,131Q573,609.87,551.25,641.56c-.66,1-1.19,2.23-2.12,2.73-1.75.94-4.23,2.44-5.51,1.83-1.7-.81-3.14-3.29-3.58-5.3s.46-4.24,1-6.34q17.84-74.58,35.71-149.16a32.32,32.32,0,0,0,1-5.39c.2-3.34-1.44-5.36-4.86-5.74-.82-.09-1.66-.09-2.49-.11q-41.16-1-82.32-2c-3.18-.08-7.14.31-7.93-3.46a12.45,12.45,0,0,1,1.82-8.58q47.51-71,95.35-141.8,27.08-40.18,54.18-80.37c.93-1.38,1.66-3.11,3-4,1.63-1.07,4.07-2.31,5.56-1.78C641.76,232.72,642.93,235.14,644.1,236.48Z" transform="translate(-173.58 -24.96)"/><path d="M727.25,584H623.86c-6.75,0-7-.18-6.92-7.06.2-17.45-2.43-15,15.08-15q97.14-.13,194.3-.1a37.07,37.07,0,0,0,11.28-1.39c7.23-2.33,10-6.65,10-14.29,0-17.16,0-34.33,0-51.49,0-6.9.14-7,6.93-7,11.82,0,23.64-.12,35.46.05,4.66.06,6.49-1.57,6.46-6.42q-.24-42,0-84c0-4.78-1.59-6.48-6.35-6.4-12.15.22-24.31-.07-36.46.13-4.57.08-6.15-1.67-6.11-6.16.16-17,.07-34,.06-51,0-10.83-5.59-16.84-16.5-17.7-2.32-.18-4.66-.1-7-.1H651.34c-6.79,0-6.78,0-6.77-6.88,0-3.84-.31-7.7.14-11.48.16-1.36,2-2.76,3.36-3.64.83-.54,2.27-.14,3.44-.14q87.15,0,174.32,0c13.58,0,26,3.34,36,13.33A32.77,32.77,0,0,1,871.68,331c.1,10.66.17,21.33,0,32-.09,4.32,1.4,6,5.77,5.8,5-.26,10.07-.61,15,.1,5.34.77,10.9,1.92,15.66,4.31,8,4,11.93,11.09,11.89,20.39-.13,30-.58,60,.17,90,.38,15.26-13.25,25.13-24.75,25.4-6.33.15-12.66.19-19,0-3.5-.08-4.71,1.38-4.67,4.75.1,9.83-.4,19.69.11,29.5,1.15,21.92-14.12,35.83-32.75,39.65a55.29,55.29,0,0,1-10.9,1Q777.71,584.07,727.25,584Z" transform="translate(-173.58 -24.96)"/></svg>