<svg id="Vectorisé" xmlns="http://www.w3.org/2000/svg" viewBox="0 0 568.55 515.58"><title>logo e-puck3</title><path d="M832.82,582.52h31.79l38.93-129.46H833l-11.57-11.58a64.51,64.51,0,1,0-14.15,14.14l5.15,5.15V574.59l-5.06,5a64.47,64.47,0,1,0,14.12,14.16ZM769.44,448a44.46,44.46,0,1,1,37.62-20.89L776.29,396.3a10,10,0,1,0-14.15,14.13l30.78,30.8A44.12,44.12,0,0,1,769.44,448Zm44.38,183.63A44.43,44.43,0,1,1,793,594l-30.61,30.53a10,10,0,0,0,14.13,14.16l30.6-30.52A44,44,0,0,1,813.82,631.61Z" transform="translate(-582.84 -339.2)"/><path d="M780.6,817.6v24.9a42.71,42.71,0,0,1-4.8,1,44.13,44.13,0,0,1-6.75.52,35.34,35.34,0,0,1-5.93-.45,10.07,10.07,0,0,1-4.42-1.8,8.18,8.18,0,0,1-2.7-3.67,17.18,17.18,0,0,1-.9-6.08V760a11.56,11.56,0,0,1,1.72-6.6,18.23,18.23,0,0,1,4.73-4.65A39.76,39.76,0,0,1,773.1,744a61.25,61.25,0,0,1,15.45-1.8,57.75,57.75,0,0,1,16.72,2.33,37.14,37.14,0,0,1,10,4.61l12.95-43.56H582.84V854.78h201l10.48-35.26c-.56,0-1.12,0-1.69,0A36,36,0,0,1,780.6,817.6Zm-93.75-35.85a14.25,14.25,0,0,1-8,3.45l-37,5.55a12.49,12.49,0,0,0,6.75,7.43,26.48,26.48,0,0,0,11.7,2.47,42,42,0,0,0,11.63-1.57,37.48,37.48,0,0,0,8.92-3.68,12.56,12.56,0,0,1,4,4.2,10.76,10.76,0,0,1,1.65,5.7q0,6.75-6.3,10.05a33.4,33.4,0,0,1-10.8,3.45,76.06,76.06,0,0,1-11.25.9,52.63,52.63,0,0,1-16.43-2.47,37.18,37.18,0,0,1-13.19-7.43,34.41,34.41,0,0,1-8.86-12.45,44.15,44.15,0,0,1-3.22-17.55,41,41,0,0,1,3.22-17,33,33,0,0,1,20.48-18.45,44.73,44.73,0,0,1,13.8-2.18,41.64,41.64,0,0,1,14.47,2.4,34.61,34.61,0,0,1,11.25,6.6,29.53,29.53,0,0,1,7.36,10.05A30.94,30.94,0,0,1,689.7,774Q689.7,779.05,686.85,781.75Zm53.4,5.18a9.08,9.08,0,0,1-6.6,2.47h-32.1a20,20,0,0,1-1.95-4.35,17.91,17.91,0,0,1-.9-5.7q0-5.55,2.55-8a9.08,9.08,0,0,1,6.6-2.48H740a32.11,32.11,0,0,1,1.87,4.35,16.66,16.66,0,0,1,1,5.7C742.8,782.6,742,785.27,740.25,786.93Z" transform="translate(-582.84 -339.2)"/><path d="M789.45,762.1a17.74,17.74,0,0,0-5.1.68,20.41,20.41,0,0,0-3.9,1.57v33a22.56,22.56,0,0,0,3.9,1.5,16.31,16.31,0,0,0,4.5.6q15.45,0,15.45-18.45,0-9.6-3.83-14.25T789.45,762.1Z" transform="translate(-582.84 -339.2)"/><path d="M654,760.75a14.89,14.89,0,0,0-6.23,1.2A12.52,12.52,0,0,0,643.5,765a12.78,12.78,0,0,0-2.48,4.2,17.25,17.25,0,0,0-1,4.72l25.65-4.2a11.34,11.34,0,0,0-3.3-6Q659.55,760.75,654,760.75Z" transform="translate(-582.84 -339.2)"/><path d="M818.55,751.6a35.66,35.66,0,0,0-3.32-2.51l-20.94,70.43a46.22,46.22,0,0,0,13.83-2.37,31.2,31.2,0,0,0,11.93-7.27,32.88,32.88,0,0,0,7.65-12.08,47.75,47.75,0,0,0,2.7-16.8,43.38,43.38,0,0,0-3.15-17.32A33.06,33.06,0,0,0,818.55,751.6Z" transform="translate(-582.84 -339.2)"/><path d="M910.8,746.35a10.11,10.11,0,0,0-4.43-1.8,35.3,35.3,0,0,0-5.92-.45,48.23,48.23,0,0,0-6.68.45,34.34,34.34,0,0,0-4.72.9V798a19.75,19.75,0,0,1-3.38,1.2,21.67,21.67,0,0,1-5.62.6c-3.81,0-6.7-.87-8.7-2.62s-3-4.68-3-8.78V756.1a15.88,15.88,0,0,0-1-6.07,8.66,8.66,0,0,0-2.77-3.68,10.11,10.11,0,0,0-4.43-1.8,35.3,35.3,0,0,0-5.92-.45,48.23,48.23,0,0,0-6.68.45,34.34,34.34,0,0,0-4.72.9v42.9a34.41,34.41,0,0,0,2.7,14.33,24.8,24.8,0,0,0,7.65,9.67A33.31,33.31,0,0,0,865,817.9a58.47,58.47,0,0,0,14.93,1.8A69,69,0,0,0,895.72,818a41.42,41.42,0,0,0,12.53-5,12.26,12.26,0,0,0,6.3-11.25V756.1a15.88,15.88,0,0,0-1-6.07A8.66,8.66,0,0,0,910.8,746.35Z" transform="translate(-582.84 -339.2)"/><path d="M984.74,796.15a47.92,47.92,0,0,1-5.85,2.25,25.83,25.83,0,0,1-7.8,1.05,19,19,0,0,1-13-4.65q-5.32-4.65-5.33-13.95a20.19,20.19,0,0,1,1.5-8.1,17.21,17.21,0,0,1,4-5.77,16.52,16.52,0,0,1,5.85-3.53,21.08,21.08,0,0,1,7.12-1.2,26,26,0,0,1,7.8,1.13,48.81,48.81,0,0,1,6.15,2.32,18.54,18.54,0,0,0,3.15-4.27,11,11,0,0,0,1.35-5.33q0-6.15-5.85-10.05t-16.65-3.9a48.73,48.73,0,0,0-15.37,2.4,37.21,37.21,0,0,0-12.83,7.2A33.53,33.53,0,0,0,930.22,764,43.17,43.17,0,0,0,927,781.3a39.45,39.45,0,0,0,3,15.6A34.55,34.55,0,0,0,938.47,809a38.43,38.43,0,0,0,13.12,7.79,49.87,49.87,0,0,0,17.1,2.78q10.35,0,16.2-3.37t5.85-9.53a11.2,11.2,0,0,0-1.5-5.92A15.58,15.58,0,0,0,984.74,796.15Z" transform="translate(-582.84 -339.2)"/><path d="M1059.44,772.6q3.3-2.85,5.78-5a34.39,34.39,0,0,0,4-4.13,15,15,0,0,0,2.32-3.82,11,11,0,0,0,.75-4.13,10.39,10.39,0,0,0-4.72-8.7q-4.72-3.45-12.53-3.45l-25.8,26.4v-39.6a15.89,15.89,0,0,0-1-6.07,8.68,8.68,0,0,0-2.78-3.68,10.07,10.07,0,0,0-4.42-1.8,35.34,35.34,0,0,0-5.93-.45,40.48,40.48,0,0,0-6.52.53c-2.15.35-3.78.67-4.88,1V806.5a15.93,15.93,0,0,0,1,6.08,8.63,8.63,0,0,0,2.77,3.67,10.11,10.11,0,0,0,4.43,1.8,35.22,35.22,0,0,0,5.92.45,41.78,41.78,0,0,0,6.53-.52c2.15-.36,3.77-.63,4.87-.83v-27.3l14.85,18.6a33.5,33.5,0,0,0,8.1,7.88,16,16,0,0,0,8.55,2.32q6.45,0,9.83-3.75t4.12-10.8l-24-24Z" transform="translate(-582.84 -339.2)"/><path d="M1150.19,783.7a21,21,0,0,0-3.3-6.3,20.42,20.42,0,0,0-4.8-4.5,29.32,29.32,0,0,0-5.85-3,25.18,25.18,0,0,0,9.08-7.57,19.6,19.6,0,0,0,3.82-12.23q0-12-9-19.12t-26.25-7.13q-13,0-20.85,3.53t-7.8,11a11.47,11.47,0,0,0,1.65,6.23,15.38,15.38,0,0,0,4.2,4.42,27.24,27.24,0,0,1,7.65-3.52,36.94,36.94,0,0,1,10.8-1.43q6.9,0,10.35,2.4a7.35,7.35,0,0,1,3.45,6.3q0,8.25-10.8,8.25h-14.1a12.61,12.61,0,0,0-1.87,4.13,22.68,22.68,0,0,0-.68,5.92,19.21,19.21,0,0,0,.75,5.7,17,17,0,0,0,1.8,4.05h14.1q7.2,0,10.13,2.25a7.81,7.81,0,0,1,2.92,6.6,8.36,8.36,0,0,1-3.67,7q-3.68,2.7-11.33,2.7-8.1,0-13.12-2.32a53.37,53.37,0,0,1-8-4.43,14.51,14.51,0,0,0-4.8,4.57,12.32,12.32,0,0,0-2,7q0,6.75,8,11.1t23.55,4.35a56.67,56.67,0,0,0,14.93-1.87,36,36,0,0,0,11.77-5.48,26.15,26.15,0,0,0,7.73-8.7,23.77,23.77,0,0,0,2.77-11.55A26.59,26.59,0,0,0,1150.19,783.7Z" transform="translate(-582.84 -339.2)"/><path d="M889.71,685.74a174.94,174.94,0,0,0,115.85-68.83,181,181,0,0,0,10.77-16.18l-.6,69.19,30,.26,2.63-304.51-30-.26-.51,59.39a176,176,0,0,0-78.32-72.63l-5.26-2.49L903.41,453h42V582.27H864.81L834.12,685l5.75.81a174.78,174.78,0,0,0,24.51,1.72A178,178,0,0,0,889.71,685.74Z" transform="translate(-582.84 -339.2)"/></svg>