<svg id="Power" xmlns="http://www.w3.org/2000/svg" viewBox="0 0 704.73 807.92"><title>power</title><path d="M640.44,903.59c-11.16-.63-22.36-1-33.48-2-10.16-1-20.27-2.52-30.35-4.18-5.42-.89-10.71-2.57-16.07-3.86-6.28-1.51-12.65-2.72-18.85-4.53-6.75-2-13.37-4.43-20-6.82s-13-4.62-19.32-7.36C494.64,871.49,487,868,479.53,864c-9.47-5-18.91-10.22-27.92-16-10-6.43-19.69-13.34-29.07-20.61-8.78-6.82-17.24-14.1-25.35-21.7-7.38-6.9-14.22-14.39-21.06-21.84a288.41,288.41,0,0,1-29.38-38.55c-6.39-9.85-12.31-20-18-30.32-4.56-8.24-8.6-16.78-12.58-25.32-1.88-4-3-8.37-4.61-12.54-2.19-5.82-4.58-11.58-6.65-17.45-1.34-3.77-2.31-7.68-3.37-11.55-1.18-4.25-2.38-8.5-3.39-12.79-1.31-5.48-2.55-11-3.62-16.51-1.43-7.38-2.77-14.77-4-22.19a109.79,109.79,0,0,1-1.45-13c-.56-14.55-1.12-29.1-1.24-43.65-.06-7.85.55-15.73,1.26-23.55.65-7.12,1.61-14.22,2.86-21.25,1.46-8.15,3.38-16.22,5.11-24.32,1.08-5,2.09-10,3.31-15,.82-3.33,1.88-6.61,3-9.85,2.12-6.22,4.2-12.46,6.6-18.57,3.14-8,6.34-15.91,9.93-23.67,4.06-8.79,8.21-17.57,13-26,5.11-9,10.83-17.73,16.55-26.4,4.1-6.22,8.49-12.26,13-18.19,3.84-5.07,8.14-9.77,12-14.81a62.87,62.87,0,0,1,18.73-16.25c4.91-2.8,10.66-4.1,16-6.13,6.37-2.41,13.05-2.06,19.53-1.45a57.83,57.83,0,0,1,32.58,13.38,62.54,62.54,0,0,1,13,14.73c4.25,6.7,7.31,13.93,8.19,21.87.57,5,1.31,10.13.88,15.1s-2.05,9.76-3.53,14.53a37,37,0,0,1-4.24,9.84c-4.2,6.18-8.73,12.17-13.49,17.94-7.34,8.89-14.32,18-19.89,28.12-4.5,8.16-9.13,16.26-13.1,24.67a203.07,203.07,0,0,0-8,20.71c-2.52,7.31-4.67,14.74-6.89,22.15a46.26,46.26,0,0,0-1.25,6.11q-1.05,6.58-2,13.2c-.74,5.41-1.6,10.82-2,16.25a171.65,171.65,0,0,0-.66,18.55c.27,9,.75,18,1.76,26.85a211.29,211.29,0,0,0,4.17,24.24c1.79,7.62,4.51,15,6.76,22.53a176,176,0,0,0,14.28,33.65,226.13,226.13,0,0,0,23.66,35.78c7.41,9,15,17.84,23.63,25.7a216,216,0,0,0,32.48,25c5.2,3.19,10.21,6.75,15.62,9.52,7.32,3.75,14.85,7.16,22.48,10.26s15.36,5.75,23.16,8.28a119.36,119.36,0,0,0,13.26,3.13c7.26,1.46,14.55,2.76,21.82,4.12A10.59,10.59,0,0,0,613,781c13,.44,26.09,1.33,39.13,1.14,8.7-.13,17.41-1.57,26-2.86a174.48,174.48,0,0,0,20-4.15c6.8-1.83,13.47-4.22,20.11-6.61a187.3,187.3,0,0,0,18.14-7.25c8.08-3.92,15.87-8.43,23.78-12.71a158.45,158.45,0,0,0,28.4-20.19c7.9-6.88,15.84-13.86,22.75-21.69a327.2,327.2,0,0,0,22.94-29.61,172.59,172.59,0,0,0,19.52-36.72c2.69-7,5.57-14,8-21.1,1.46-4.26,2.27-8.75,3.33-13.14,1.35-5.56,2.79-11.1,3.92-16.7.71-3.49,1-7.06,1.36-10.61,1.45-14,2.53-28.06,1.51-42.14a214.67,214.67,0,0,0-2.82-24.3c-1.76-9.27-4.4-18.38-6.79-27.52a132.32,132.32,0,0,0-4.55-15.4,239.33,239.33,0,0,0-10.55-23.58c-5.09-9.64-10.57-19.13-16.56-28.23a179.36,179.36,0,0,0-14.83-18.69c-5.62-6.47-10.79-13.22-14.28-21a48.25,48.25,0,0,1-3.38-12.13c-.79-5.18-1.5-10.52-1-15.68s2.29-10.52,3.65-15.73c2-7.47,6.15-13.69,11.08-19.48A59.45,59.45,0,0,1,833.72,299a60.12,60.12,0,0,1,32.34-4.25A58,58,0,0,1,885,300.89c9,4.65,15.88,11.51,22.39,19.09A341,341,0,0,1,934,355.52c6.78,10.39,13,21.15,19,32a232.79,232.79,0,0,1,11.31,23.57c3.82,9.21,7.13,18.65,10.34,28.09,2.2,6.48,4,13.09,5.72,19.72,2.09,8.12,4.18,16.26,5.71,24.49,1.81,9.71,3.19,19.52,4.44,29.32.72,5.71,1,11.49,1.19,17.25.42,10.65.9,21.3.9,31.95,0,7.36-.55,14.73-1.24,22.07s-1.66,14.41-2.82,21.56q-1.8,11.13-4.22,22.15c-1.64,7.38-3.38,14.76-5.57,22-2.54,8.41-5.37,16.76-8.54,24.95-3.51,9.07-7.24,18.07-11.42,26.84-3.79,7.94-8.19,15.62-12.56,23.27-4.09,7.16-8.08,14.42-12.84,21.12-8.48,11.92-17,23.91-26.45,35-11.09,13-22.87,25.39-36.3,36.09-7.18,5.72-14,12-21.38,17.36-8.68,6.3-17.73,12.13-26.87,17.76-8,4.93-16.19,9.57-24.55,13.85-7.44,3.8-15.15,7.07-22.86,10.3-7.06,3-14.22,5.72-21.46,8.22-5.46,1.88-11.14,3.16-16.7,4.79-4,1.18-8,2.56-12,3.71a70.63,70.63,0,0,1-7.75,1.76c-9.18,1.58-18.33,3.39-27.57,4.52-13,1.59-26.08,2.71-39.14,3.9-3.27.29-6.59,0-9.88,0Z" transform="translate(-287.89 -95.67)"/><path d="M579.53,353.11q0-95.62,0-191.25c0-3.69-.18-7.41.17-11.08a59.22,59.22,0,0,1,17.93-37.42,66.43,66.43,0,0,1,15.7-11.2,56.66,56.66,0,0,1,27.35-6.48A58.09,58.09,0,0,1,666,101.94a60,60,0,0,1,20.61,16.16,62.94,62.94,0,0,1,10,18.06c3.63,10,3.9,20.16,3.9,30.51q0,189.75,0,379.5a72.2,72.2,0,0,1-3.83,23.88c-5.12,14.77-14.65,25.47-28.07,33.2-12.11,7-25.25,8.68-38.52,6.68a58,58,0,0,1-33.31-17.46,60.49,60.49,0,0,1-13.83-22.05,49.46,49.46,0,0,1-3.17-15.86c-.21-67.15-.13-134.3-.13-201.45Z" transform="translate(-287.89 -95.67)"/></svg>