<?xml version="1.0" encoding="utf-8"?>
<!-- Generator: Adobe Illustrator 24.0.1, SVG Export Plug-In . SVG Version: 6.00 Build 0)  -->
<svg version="1.1" id="Calque_1" xmlns="http://www.w3.org/2000/svg" xmlns:xlink="http://www.w3.org/1999/xlink" x="0px" y="0px"
	 viewBox="0 0 1280 1024" style="enable-background:new 0 0 1280 1024;" xml:space="preserve">
<g>
	<path d="M758.81,656.48c0.3-2.58,0.75-4.82,0.78-7.06c0.11-8.65,0.04-17.3,0.12-25.96c0.06-6.19,1.95-8.27,7.99-8.27
		c51.45-0.06,102.91-0.06,154.36-0.03c1.76,0,3.52,0.49,5.85,0.84c0,54.44,0,108.53,0,163.15c-2.12,0.36-4.01,0.93-5.91,0.97
		c-16.64,0.33-33.28,0.73-49.92,0.8c-33.25,0.13-66.51,0.08-99.76,0.09c-9.02,0-9.76-0.72-9.77-9.56c-0.01-9.61,0-19.22,0-29.36
		c-2.73-0.31-4.8-0.73-6.87-0.74c-13.32-0.06-26.69-0.76-39.95,0.17c-12.72,0.89-24.62-2.7-36.69-4.97
		c-9.52-1.79-18.61-6.13-27.69-9.85c-9.92-4.07-19.77-8.4-29.33-13.24c-5.54-2.81-10.6-6.66-15.63-10.38
		c-7.91-5.85-15.55-12.07-23.43-17.98c-12.99-9.75-23.64-21.77-33.51-34.5c-6.85-8.84-13.33-17.96-19.82-27.07
		c-6.09-8.55-12.1-17.15-17.89-25.91c-3.18-4.81-5.89-9.93-8.67-14.99c-3.05-5.54-5.58-11.4-9.07-16.64
		c-1.44-2.16-4.77-4.34-7.24-4.35c-24.77-0.06-49.54,0.39-74.3,0.56c-4.64,0.03-9.28-0.74-13.92-0.76
		c-17.82-0.1-35.63-0.04-53.45-0.04c-8.3,0-16.59,0-25.72,0c-3.58,6.77-6.96,13.15-12.01,22.69c-7,11.28-18.98,22.72-32.33,32.22
		c-26.73,19.01-57.45,24.77-89.33,20.53c-20.03-2.67-38.97-10.84-54.83-24.04c-15.64-13.01-29.4-27.73-35.67-48.08
		c-1.26-0.82-2.53-1.64-2.89-1.87c-11.24-31.65-10.67-61.93,1.48-92.11c10.98-26.78,29.48-46.82,54.84-59.93
		c32.13-16.61,65.6-18.45,99.75-5.75c34.27,12.74,56.54,37.59,70.89,70.4c10.16,0,19.63,0.28,29.06-0.21
		c2.15-0.11,4.5-2.63,6.15-4.57c4.16-4.87,8.02-10.01,11.94-15.08c7.95-10.28,15.81-20.63,23.82-30.87
		c2.74-3.5,5.95-6.62,8.69-10.11c6.19-7.86,11.99-16.04,18.38-23.72c6.65-7.99,13.49-15.89,20.84-23.23
		c11.1-11.08,22.42-22,34.25-32.29c6.15-5.35,13.47-9.44,20.49-13.71c7.68-4.67,15.46-9.23,23.51-13.21
		c5.27-2.61,11.07-4.16,16.67-6.08c6.01-2.06,12.02-4.15,18.12-5.94c2.98-0.88,6.14-1.58,9.23-1.6
		c33.64-0.15,67.27-0.14,100.91-0.18c2.31,0,4.62,0,6.87,0c9.98-22.51,25.82-39.23,47.12-50.14c14.68-7.52,31.05-12.07,47.42-9.93
		c15.12,1.98,30.62,4.47,44.01,13.7c13.1,9.03,24.38,19.44,32.9,32.99c8.54,13.59,12.86,28.63,13.63,44.18
		c0.97,19.74-4.45,38.48-14.63,55.59c-8.35,14.03-20.24,24.84-34.52,32.08c-22.32,11.32-45.92,15.51-70.83,8.52
		c-24.55-6.89-43.62-20.82-57.8-42.58c-1.48-0.09-3.45-0.32-5.42-0.32c-30.81,0-61.61-0.03-92.42,0.15
		c-2.61,0.02-5.22,1.43-7.8,2.31c-4.32,1.47-8.57,3.12-12.91,4.53c-11.51,3.74-21.25,10.63-30.51,17.98
		c-15.3,12.15-28.9,26.07-40.79,41.66c-6.98,9.16-14.54,17.87-21.8,26.82c-0.37,0.46-0.42,1.19-0.61,1.76
		c3.33,1.91,480.95,2.62,488.61,0.68c0.18-1.87,0.54-3.95,0.54-6.03c0.05-16.47-0.04-32.95,0.11-49.42
		c0.03-2.75,1.01-5.49,1.68-8.84c14.77,5.75,28.3,11.02,41.83,16.29c0.11-0.23,0.22-0.47,0.33-0.7c1.08,1.01,2.15,2.03,2.33,2.19
		c26.94,10.57,52.81,20.71,78.68,30.86c-0.04,0.09-0.07,0.19-0.11,0.28c6.62,2.64,13.25,5.28,19.87,7.92
		c-0.01,0.01-0.01,0.02-0.02,0.02c23.14,9.02,46.29,18.04,70.04,27.3c8.1,3.49,16.77,7.29,25.5,10.95
		c4.51,1.89,9.37,3.08,13.64,5.39c6.99,3.79,6.77,15.04-0.51,18.31c-9.71,4.38-19.8,7.92-29.71,11.87
		c-8.02,3.2-15.97,6.55-24.01,9.7c-2.6,1.02-5.37,1.6-7.79,2.96c-19.56,7.7-39.13,15.36-58.67,23.11
		c-19.37,7.69-38.7,15.48-53.78,21.52c-28.36,10.34-51.22,22.13-77.43,29.38c-0.73-3.25-1.82-5.92-1.85-8.6
		c-0.17-16.8-0.09-33.61-0.14-50.42c-0.01-2.1-0.32-4.2-0.53-6.77c-119.04,0-237.61,0-356.53,0c-0.23,1.87-0.4,3.29-0.7,5.78
		c10.07,12.27,19.81,25.52,31.01,37.41c11.16,11.85,23.78,22.33,36.59,32.6c1.46,0.32,2.91,0.65,4.37,0.97
		C694.96,655.26,725.72,659.14,758.81,656.48z"/>
</g>
</svg>
