<svg id="Wifi" xmlns="http://www.w3.org/2000/svg" viewBox="0 0 874.51 717.44"><title>wifi</title><path d="M617.57,179.53c38.72.28,71.72,2.62,104.44,7.92a617.74,617.74,0,0,1,293,132.07q16.57,13.62,32.32,28.26c12,11.16,15.62,25.49,12.23,41.11-3.6,16.62-14.15,28.09-30.56,32.42-15.39,4.05-29.6.42-41.59-10.77a533.23,533.23,0,0,0-126.63-87.85,525.46,525.46,0,0,0-116.55-42c-26.48-6.12-53.17-11-80.32-12.08-25.08-1-50.28-1.92-75.3-.53-22.49,1.24-44.77,6-67.22,8.56-24,2.69-46.77,9.91-69.4,17.57a523.72,523.72,0,0,0-158.27,86.1c-12.12,9.59-23.75,19.83-35.31,30.11-13.89,12.34-34.58,14.92-50.58,5.84s-24.39-28.78-20.7-47.09c2.53-12.58,10.38-21.16,19.47-29.28a645.53,645.53,0,0,1,92.1-69.11C334.56,248.72,372.21,230.14,412,216c10.94-3.89,21.83-8.1,33-11,19.57-5.09,39.22-10.12,59.11-13.62,23.9-4.19,48-7.26,72.15-9.84C591.8,179.88,607.51,180,617.57,179.53Z" transform="translate(-186.21 -179.53)"/><path d="M291.57,515.75c-.26-8.35,4.95-18.77,14.55-27.35A480.78,480.78,0,0,1,405,420.45a467.39,467.39,0,0,1,94.6-36.82c32.36-8.71,65.3-14.6,98.87-15.33,31.57-.68,63.08.62,94.46,5.22a474.43,474.43,0,0,1,148.39,47.57,469.6,469.6,0,0,1,100.06,68.82c11.8,10.6,16.43,24.35,13.27,40.23-3.42,17.17-13.6,29-30.17,34-15.36,4.62-29.65.92-41.79-9.8a396.5,396.5,0,0,0-87.56-58.8c-29.52-14.52-60.5-24.64-92.6-32a355.75,355.75,0,0,0-85.09-8.95,384.19,384.19,0,0,0-104.24,16,390,390,0,0,0-124.81,63.08c-8.63,6.5-16.83,13.58-25.17,20.46-14,11.57-29.74,14.36-46.13,6.95C300.05,553.33,291.6,539.29,291.57,515.75Z" transform="translate(-186.21 -179.53)"/><path d="M849.34,658.91c-.41,16.35-7.06,29.32-21.37,37.59s-29.35,8.55-43.54-.29c-10.15-6.32-19.22-14.34-29.34-20.7-39.65-24.91-82.86-37.73-129.88-38-59.08-.34-111.49,18.31-157.41,55-24.15,19.28-58.34,8.92-68.16-19.27-5.88-16.86-1.62-36.16,14.65-49.26a338.15,338.15,0,0,1,68.46-42.64,318.48,318.48,0,0,1,75.61-24.81,334.73,334.73,0,0,1,215.88,29.77,324.42,324.42,0,0,1,59.69,38.86C844.43,633.72,849.5,645.19,849.34,658.91Z" transform="translate(-186.21 -179.53)"/><path d="M704.14,816.22A80.17,80.17,0,0,1,623.78,897c-45.32-.11-81.35-34.9-81.23-80.43s34.7-80.32,80.66-80.5C671.39,735.86,704.41,774.37,704.14,816.22Z" transform="translate(-186.21 -179.53)"/></svg>